<svg xmlns="http://www.w3.org/2000/svg" xmlns:xlink="http://www.w3.org/1999/xlink" version="1.1" width="256" height="256" viewBox="0 0 256 256" xml:space="preserve">

<g style="opacity: 1;" transform="translate(1.4065934065934016 1.4065934065934016) scale(2.81 2.81)" >
	<circle cx="45" cy="45" r="45" style="stroke: none; stroke-width: 1; stroke-dasharray: none; stroke-linecap: butt; stroke-linejoin: miter; stroke-miterlimit: 10; fill: rgb(186,217,246); fill-rule: nonzero; opacity: 1;" transform="  matrix(1 0 0 1 0 0) "/>
	<path d="M 68.105 50.57 L 75 45.002 l -6.895 -5.567 l -5.268 4.254 h -2.576 l 3.203 -2.747 l -1.71 -1.994 l -5.527 4.741 h -3.38 l -2.809 -4.866 l 1.55 -2.684 l 7.166 -2.52 l -0.872 -2.478 l -4.276 1.504 l 1.407 -2.437 l 6.318 -2.435 l -1.374 -8.754 l -8.269 3.187 l 1.05 6.689 l -1.287 2.23 l -0.778 -4.147 l -2.582 0.484 l 1.342 7.157 l -1.691 2.929 h -5.571 l -1.691 -2.929 l 1.343 -7.157 l -2.582 -0.484 l -0.778 4.147 l -1.288 -2.23 l 1.05 -6.689 l -8.269 -3.187 l -1.374 8.754 l 6.318 2.435 l 1.407 2.437 l -4.277 -1.504 l -0.872 2.478 l 7.166 2.521 l 1.593 2.759 l -2.766 4.791 h -3.379 l -5.527 -4.741 l -1.71 1.994 l 3.203 2.747 h -2.576 l -5.268 -4.254 L 15 45.002 l 6.894 5.567 l 5.268 -4.254 h 2.814 l -3.441 2.952 l 1.71 1.993 l 5.765 -4.945 h 3.142 l 2.764 4.788 l -1.711 2.963 l -6.87 2.416 l 0.872 2.478 l 3.981 -1.4 l -1.288 2.23 l -6.318 2.435 l 1.374 8.754 l 8.269 -3.187 l -1.05 -6.689 l 1.407 -2.436 l 0.836 4.456 l 2.582 -0.485 l -1.4 -7.466 l 1.569 -2.718 h 5.576 l 1.569 2.718 l -1.4 7.465 l 2.582 0.485 l 0.836 -4.456 l 1.407 2.436 l -1.05 6.689 l 8.269 3.187 l 1.374 -8.754 l -6.318 -2.435 l -1.288 -2.23 l 3.981 1.4 l 0.871 -2.478 l -6.869 -2.416 l -1.668 -2.888 l 2.808 -4.863 h 3.142 l 5.764 4.945 l 1.71 -1.993 l -3.441 -2.952 h 2.814 L 68.105 50.57 z" style="stroke: none; stroke-width: 1; stroke-dasharray: none; stroke-linecap: butt; stroke-linejoin: miter; stroke-miterlimit: 10; fill: rgb(255,255,255); fill-rule: nonzero; opacity: 1;" transform=" matrix(1 0 0 1 0 0) " stroke-linecap="round" />
	<circle cx="24.93" cy="9.86" r="1.38" style="stroke: none; stroke-width: 1; stroke-dasharray: none; stroke-linecap: butt; stroke-linejoin: miter; stroke-miterlimit: 10; fill: rgb(255,255,255); fill-rule: nonzero; opacity: 1;" transform="  matrix(1 0 0 1 0 0) "/>
	<circle cx="73.33999999999999" cy="32.4" r="1.38" style="stroke: none; stroke-width: 1; stroke-dasharray: none; stroke-linecap: butt; stroke-linejoin: miter; stroke-miterlimit: 10; fill: rgb(255,255,255); fill-rule: nonzero; opacity: 1;" transform="  matrix(1 0 0 1 0 0) "/>
	<circle cx="46.480000000000004" cy="81.58" r="1.38" style="stroke: none; stroke-width: 1; stroke-dasharray: none; stroke-linecap: butt; stroke-linejoin: miter; stroke-miterlimit: 10; fill: rgb(255,255,255); fill-rule: nonzero; opacity: 1;" transform="  matrix(1 0 0 1 0 0) "/>
	<circle cx="16.95" cy="58.56" r="1.38" style="stroke: none; stroke-width: 1; stroke-dasharray: none; stroke-linecap: butt; stroke-linejoin: miter; stroke-miterlimit: 10; fill: rgb(255,255,255); fill-rule: nonzero; opacity: 1;" transform="  matrix(1 0 0 1 0 0) "/>
	<circle cx="63.34" cy="13.399999999999999" r="1.38" style="stroke: none; stroke-width: 1; stroke-dasharray: none; stroke-linecap: butt; stroke-linejoin: miter; stroke-miterlimit: 10; fill: rgb(255,255,255); fill-rule: nonzero; opacity: 1;" transform="  matrix(1 0 0 1 0 0) "/>
	<circle cx="22.34" cy="76.39999999999999" r="1.38" style="stroke: none; stroke-width: 1; stroke-dasharray: none; stroke-linecap: butt; stroke-linejoin: miter; stroke-miterlimit: 10; fill: rgb(255,255,255); fill-rule: nonzero; opacity: 1;" transform="  matrix(1 0 0 1 0 0) "/>
	<circle cx="7.42" cy="39.75" r="1.38" style="stroke: none; stroke-width: 1; stroke-dasharray: none; stroke-linecap: butt; stroke-linejoin: miter; stroke-miterlimit: 10; fill: rgb(255,255,255); fill-rule: nonzero; opacity: 1;" transform="  matrix(1 0 0 1 0 0) "/>
	<circle cx="83.61" cy="53.35" r="1.38" style="stroke: none; stroke-width: 1; stroke-dasharray: none; stroke-linecap: butt; stroke-linejoin: miter; stroke-miterlimit: 10; fill: rgb(255,255,255); fill-rule: nonzero; opacity: 1;" transform="  matrix(1 0 0 1 0 0) "/>
	<circle cx="46.480000000000004" cy="9.48" r="1.38" style="stroke: none; stroke-width: 1; stroke-dasharray: none; stroke-linecap: butt; stroke-linejoin: miter; stroke-miterlimit: 10; fill: rgb(255,255,255); fill-rule: nonzero; opacity: 1;" transform="  matrix(1 0 0 1 0 0) "/>
	<circle cx="70.61" cy="65.35" r="1.38" style="stroke: none; stroke-width: 1; stroke-dasharray: none; stroke-linecap: butt; stroke-linejoin: miter; stroke-miterlimit: 10; fill: rgb(255,255,255); fill-rule: nonzero; opacity: 1;" transform="  matrix(1 0 0 1 0 0) "/>
	<circle cx="16.95" cy="27.82" r="1.38" style="stroke: none; stroke-width: 1; stroke-dasharray: none; stroke-linecap: butt; stroke-linejoin: miter; stroke-miterlimit: 10; fill: rgb(255,255,255); fill-rule: nonzero; opacity: 1;" transform="  matrix(1 0 0 1 0 0) "/>
	<circle cx="66.1" cy="76.39999999999999" r="1.38" style="stroke: none; stroke-width: 1; stroke-dasharray: none; stroke-linecap: butt; stroke-linejoin: miter; stroke-miterlimit: 10; fill: rgb(255,255,255); fill-rule: nonzero; opacity: 1;" transform="  matrix(1 0 0 1 0 0) "/>
</g>
</svg>